<svg xmlns="http://www.w3.org/2000/svg" width="40" height="40" viewBox="0 0 40 40" fill="none">
  <rect width="40" height="40" rx="19.79" fill="white" fill-opacity="0.1"/>
  <g transform="translate(14.67 11.758) scale(0.7668)">
    <path
      transform="translate(-17.0473 -13.2509)"
      d="M17.6291 34.7491V31.5782L24.96 22.5891C26.0655 21.2509 26.4436 20.3782 26.4436 19.5636C26.4436 18.2545 25.4545 17.3527 24.0291 17.3527C23.1564 17.3527 22.4582 17.7018 22.0218 18.2836C21.5273 18.9818 21.4691 19.7382 21.4691 20.5236H17.0473C17.0473 16.16 19.8691 13.2509 24.4073 13.2509C28.3055 13.2509 30.9527 15.4618 30.9527 19.0109C30.9527 21.1636 30.0509 23.0836 27.4036 26.2545L23.7382 30.6764H30.5745V34.7491H17.6291Z"
      fill="white"
    />
  </g>
</svg>
